<svg width="41" height="35" viewBox="0 0 41 35" fill="none" xmlns="http://www.w3.org/2000/svg">
<path d="M40.4557 14.8993L40.3737 14.3771C39.6217 9.58649 37.3689 5.12174 33.8582 1.46484C32.3854 -0.0692355 29.9016 -0.447961 27.9524 0.564713L17.3393 6.07828C17.0613 6.22287 16.9099 6.5052 16.9581 6.79027C17.0561 7.36836 16.8489 7.93631 16.3893 8.34872C15.6602 9.00293 14.5033 9.06153 13.6989 8.48509C13.4474 8.3049 13.0983 8.28135 12.8199 8.42622L2.76105 13.652C2.09637 13.997 1.55225 14.4842 1.16406 15.0557C1.04199 15.1584 0.957153 15.2956 0.928467 15.4503C0.651367 15.9813 0.5 16.5676 0.5 17.1706V25.4804C0.5 25.8676 0.849731 26.1814 1.28125 26.1814C2.39667 26.1814 3.30426 26.9958 3.30426 27.9967C3.30426 28.9979 2.39667 29.8123 1.28125 29.8123C0.849731 29.8123 0.5 30.1261 0.5 30.5133V30.934C0.5 33.1759 2.53278 35 5.03125 35H27.6567C28.0882 35 28.4379 34.6862 28.4379 34.299C28.4379 33.2978 29.3455 32.4834 30.4609 32.4834C31.5764 32.4834 32.4839 33.2978 32.4839 34.299C32.4839 34.6862 32.8337 35 33.2652 35H35.9688C38.4672 35 40.5 33.1759 40.5 30.934V15.4665C40.5 15.2772 40.485 15.0866 40.4557 14.8993ZM35.9688 33.5979H33.961C33.6033 32.1597 32.1696 31.0813 30.4609 31.0813C28.7523 31.0813 27.3185 32.1597 26.9609 33.5979H5.03125C3.46997 33.5979 2.1861 32.5108 2.07104 31.1355C3.66925 30.8118 4.86707 29.5275 4.86707 27.9967C4.86707 26.4635 3.66528 25.177 2.0625 24.8563V17.1706C2.0625 16.8584 2.12537 16.5536 2.24072 16.2677H7.5575C7.98871 16.2677 8.33875 15.9539 8.33875 15.5667C8.33875 15.1795 7.98871 14.8656 7.5575 14.8656H3.54321C3.54321 14.8654 3.54352 14.8654 3.54382 14.8654L13.1801 9.85924C14.5625 10.5712 16.3337 10.3812 17.494 9.34003C18.1657 8.7373 18.5396 7.91604 18.5435 7.07288L28.7352 1.77811C30.0346 1.10309 31.6914 1.35612 32.6744 2.38002C35.9892 5.83264 38.1166 10.0487 38.8264 14.5724L38.8725 14.8656H21.624C21.9465 14.0496 22.8148 13.4636 23.8334 13.4636C24.265 13.4636 24.6147 13.1497 24.6147 12.7625C24.6147 12.3753 24.265 12.0615 23.8334 12.0615C21.9468 12.0615 20.3688 13.2675 20.0056 14.8656H14.3281C13.8966 14.8656 13.5469 15.1795 13.5469 15.5667C13.5469 15.9539 13.8966 16.2677 14.3281 16.2677H20.0056C20.3688 17.8656 21.9468 19.0719 23.8334 19.0719C25.7197 19.0719 27.2981 17.8656 27.6609 16.2677H38.9375V30.934C38.9375 32.4029 37.6057 33.5979 35.9688 33.5979ZM26.0426 16.2677C25.72 17.0838 24.8518 17.6698 23.8331 17.6698C22.8148 17.6698 21.9465 17.0838 21.624 16.2677H26.0426Z" fill="#FF7010"/>
</svg>
